<svg viewBox="0 0 32 32" xml:space="preserve" xmlns="http://www.w3.org/2000/svg"><g fill="#a3a3a3" class="fill-263238"><circle cx="7.5" cy="5.5" r=".5"></circle><circle cx="5.5" cy="5.5" r=".5"></circle><circle cx="3.5" cy="5.5" r=".5"></circle><path d="M30.5 8h-29a.5.5 0 0 1 0-1h29a.5.5 0 0 1 0 1z"></path><path d="M29.5 3h-27C1.673 3 1 3.673 1 4.5v23c0 .827.673 1.5 1.5 1.5h27c.827 0 1.5-.673 1.5-1.5v-23c0-.827-.673-1.5-1.5-1.5zm.5 24.5c0 .275-.225.5-.5.5h-27a.501.501 0 0 1-.5-.5v-23c0-.275.225-.5.5-.5h27c.275 0 .5.225.5.5v23z"></path></g><path d="M24.5 22h3a.5.5 0 0 0 0-1h-3a.5.5 0 0 0 0 1zM17.5 24h3a.5.5 0 0 0 0-1h-3a.5.5 0 0 0 0 1zM17.5 26h5a.5.5 0 0 0 0-1h-5a.5.5 0 0 0 0 1zM24.5 26h1a.5.5 0 0 0 0-1h-1a.5.5 0 0 0 0 1zM17.5 22h5a.5.5 0 0 0 0-1h-5a.5.5 0 0 0 0 1zM22.5 24h5a.5.5 0 0 0 0-1h-5a.5.5 0 0 0 0 1zM14.5 24h-3a.5.5 0 0 1 0-1h3a.5.5 0 0 1 0 1zM12.5 26h-3a.5.5 0 0 1 0-1h3a.5.5 0 0 1 0 1zM7.5 26h-3a.5.5 0 0 1 0-1h3a.5.5 0 0 1 0 1zM15.5 18h-10a.5.5 0 0 1 0-1h10a.5.5 0 0 1 0 1zM14.5 22h-10a.5.5 0 0 1 0-1h10a.5.5 0 0 1 0 1zM9.5 24h-5a.5.5 0 0 1 0-1h5a.5.5 0 0 1 0 1z" fill="#a3a3a3" class="fill-263238"></path><path d="M27.5 18h-23a.5.5 0 0 1-.5-.5v-7a.5.5 0 0 1 .5-.5h23a.5.5 0 0 1 .5.5v7a.5.5 0 0 1-.5.5zM5 17h22v-6H5v6z" fill="#a3a3a3" class="fill-263238"></path></svg>